<?xml version="1.0" standalone="no"?>
<!DOCTYPE svg PUBLIC "-//W3C//DTD SVG 20010904//EN"
 "http://www.w3.org/TR/2001/REC-SVG-20010904/DTD/svg10.dtd">
<svg version="1.0" xmlns="http://www.w3.org/2000/svg"
 width="982.000000pt" height="980.000000pt" viewBox="0 0 982.000000 980.000000"
 preserveAspectRatio="xMidYMid meet">

<g transform="translate(0.000000,980.000000) scale(0.100000,-0.100000)"
fill="#000000" stroke="none">
<path d="M3641 7918 c-66 -25 -137 -93 -171 -163 l-25 -50 0 -1885 0 -1885 28
-57 c16 -33 49 -76 78 -102 82 -74 96 -76 471 -76 l328 0 0 -779 0 -779 -157
-4 c-139 -4 -164 -7 -205 -27 -84 -41 -152 -130 -160 -211 l-3 -35 1083 -3
1082 -2 0 32 c0 52 -42 130 -95 176 -67 59 -119 72 -287 72 l-138 0 2 778 3
777 340 5 c331 5 341 6 387 28 65 33 131 106 157 175 l21 58 0 1859 0 1859
-22 58 c-29 77 -104 152 -181 181 l-58 22 -1212 -1 c-1204 0 -1212 0 -1266
-21z m2229 -518 c20 -20 20 -33 20 -1280 0 -1247 0 -1260 -20 -1280 -20 -20
-33 -20 -960 -20 -927 0 -940 0 -960 20 -20 20 -20 33 -20 1280 0 1247 0 1260
20 1280 20 20 33 20 960 20 927 0 940 0 960 -20z"/>
</g>
</svg>
